<?xml version="1.0" encoding="UTF-8" standalone="no"?>
<!-- Created with Inkscape (http://www.inkscape.org/) -->

<svg
   xmlns:dc="http://purl.org/dc/elements/1.1/"
   xmlns:cc="http://creativecommons.org/ns#"
   xmlns:rdf="http://www.w3.org/1999/02/22-rdf-syntax-ns#"
   xmlns:svg="http://www.w3.org/2000/svg"
   xmlns="http://www.w3.org/2000/svg"
   version="1.1"
   width="300.00003"
   height="87.816498"
   id="svg28005">
  <defs
     id="defs28007">
    <clipPath
       id="clip941">
      <path
         d="m 352.22266,639.90625 c 0.6875,0.004 1.09765,0.082 2.22656,1.61328 0.13281,0.20703 0.46094,0.64063 0.84375,1.14453 0.55078,0.72656 1.21094,1.59766 1.61719,2.22266 -0.30079,-0.0234 -0.66016,-0.0508 -0.66016,-0.0508 0,0 -1.02734,-0.0703 -1.18359,-0.082 -2.24219,-3.25 -3.16016,-4.65625 -3.26563,-4.82813 0,0 -0.004,-0.004 -0.004,-0.004 0.0781,-0.0117 0.20704,-0.0195 0.42579,-0.0156 z m -0.5,-4.03906 -1.50391,0.004 -1.39453,-0.004 c -1.54297,-0.004 -2.8711,-0.0117 -4.09375,0.0781 -1.29297,0.0937 -1.96094,1.01563 -1.95313,1.875 0.0195,1.42969 1.32422,3.71875 2.83594,6.375 0.53125,0.92578 1.07422,1.88281 1.61328,2.88281 1.45313,2.67188 3.08203,5.58204 3.95313,7.14844 l 0.46875,0.83203 0.0898,0.0156 c 2.76953,0.41406 5.02344,0.76953 7.01563,1.08203 1.74609,0.27734 3.25781,0.51562 4.51171,0.69531 l 0.42579,0.0625 -3.24219,-4.57422 c -0.88281,-1.24218 -1.17969,-1.66015 -1.54688,-2.19922 0.29688,0.0352 0.60547,0.0742 0.91407,0.11719 0,0 1.00781,0.125 1.14843,0.14063 0.45313,0.58984 1.20313,1.58203 2.06641,2.73047 1.03516,1.37109 2.20703,2.92578 3.19141,4.20312 l 0.0469,0.0625 0.0742,0.008 c 1.53516,0.21875 4.77734,0.85938 7.63281,1.42188 2.07813,0.41015 4.03906,0.79687 5.14063,0.98437 l 0.52734,0.0899 -0.35937,-0.39453 c -2.95704,-3.23438 -12.57032,-13.98829 -12.67579,-14.10547 0,0 -2.1289,-2.44141 -2.1289,-2.44141 -1.58594,-1.82422 -2.83594,-3.26562 -4.02735,-4.39062 -1.1289,-1.06641 -2.50781,-1.88282 -3.67968,-2.17969 -2.09766,-0.53516 -2.60938,-0.53125 -5.05078,-0.51953 z m -58.75782,6.29687 c 0.16407,-0.47265 0.33594,-0.96484 0.60938,-1.55469 l 0.17969,-0.39453 c 0.29296,-0.66406 0.30859,-0.70312 0.98828,-0.67968 0.22265,-0.004 0.49218,0.0195 0.59765,0.17578 0.0312,0.0547 0.0508,0.125 0.0508,0.21093 0,0.15625 -0.0586,0.36719 -0.17578,0.61719 -0.13281,0.34375 -0.3125,0.88672 -0.48437,1.40625 -0.19141,0.58203 -0.39063,1.17578 -0.52344,1.49219 -0.17969,0.004 -0.90625,0.0234 -0.90625,0.0234 0,0 -0.51953,0.0156 -0.84375,0.0234 0.21484,-0.48828 0.36328,-0.91015 0.50781,-1.32031 z m -7.57812,-2.13672 c -0.8125,1.61328 -2.08594,3.88282 -3.4336,6.28125 -1.71484,3.05469 -3.48828,6.21094 -4.45703,8.29297 l -0.14062,0.29688 0.32422,-0.0352 c 2.72265,-0.30078 7.88672,-0.79297 10.68359,-1.03125 l 0.10938,-0.0117 0.043,-0.0937 c 0.34766,-0.74609 0.73829,-1.83984 1.11719,-2.90234 0.35547,-1.00781 0.72656,-2.04297 1.05469,-2.76953 0.16797,-0.008 0.71875,-0.043 0.71875,-0.043 0,0 0.84766,-0.0508 1.21094,-0.0742 -0.0859,0.25 -0.20313,0.57812 -0.20313,0.57812 -0.51562,1.46094 -1.22265,3.45704 -1.72265,4.78907 l -0.10157,0.26562 0.8711,-0.0586 c 2.8125,-0.19922 7.0625,-0.4961 9.57812,-0.61328 l 0.14063,-0.008 0.0312,-0.13671 c 0.39453,-1.85157 0.66797,-3.26172 0.93359,-4.625 0.37891,-1.92969 0.73438,-3.75391 1.39844,-6.72657 0.47265,-2.10937 0.35937,-3.57031 -0.34375,-4.46093 -0.73438,-0.92969 -1.96875,-1.06641 -2.95703,-1.07813 -0.004,0 -4.57813,-0.0195 -4.57813,-0.0195 l -3.52734,-0.0117 c -3.76953,-0.0156 -5.52735,2.10938 -6.75,4.19531 z m 47.91797,3.64063 c -0.46485,-1.57813 -0.94532,-3.20313 -1.27344,-4.39453 0.21875,0.0117 1.24609,0.0586 1.24609,0.0586 0.91016,0.0664 1.20703,0.96094 1.46875,1.74609 l 0.0508,0.15625 c 0.23829,0.70313 1.15235,3.25 1.75391,4.9375 l 0.27344,0.75782 c 0.19531,0.54687 0.21484,0.93359 0.0547,1.15234 -0.20704,0.27734 -0.7461,0.28516 -1.13282,0.26563 0,0 -0.9414,-0.0586 -1.10937,-0.0703 -0.32813,-1.19922 -0.83594,-2.92968 -1.33203,-4.60937 z m -3.14844,-7.87891 -4.43359,0.008 -3.32813,0.0273 0.16797,0.27734 c 0.71094,1.15625 1.80859,4.28516 2.53906,8.41797 l 0.32031,1.79297 c 0.48438,2.72656 0.70704,3.96875 1.0625,6.32031 l 0.0234,0.15235 0.15235,0.004 c 3.03515,0.11328 7.27734,0.44531 11.01953,0.73828 l 3.9414,0.30469 c 0.004,0 0.76563,0.0664 0.76563,0.0664 1.35937,0.13672 3.05469,0.30859 4.27344,-0.60157 0.70703,-0.52734 1.17187,-0.98437 1.17187,-2.46875 0,-1.48046 -1.21484,-3.64453 -2.5,-5.9375 l -0.71484,-1.28125 -0.73828,-1.35546 c -1.30079,-2.38672 -2.42188,-4.44922 -3.05469,-5.01954 -0.88672,-0.79687 -1.79688,-1.45703 -3.9375,-1.45703 0,0 -6.73047,0.0117 -6.73047,0.0117 z m -15.02344,0.2461 c 0,0 0.0508,4.32812 0.0625,5.15625 -0.4375,-0.8125 -0.88672,-1.71485 -1.33203,-2.59766 -0.44531,-0.89844 -0.91016,-1.82813 -1.34375,-2.63672 l -0.0547,-0.0937 -8.13281,-0.008 0.10156,0.2539 c 0.37891,0.95704 0.30469,2.69922 0.17969,3.41797 l -0.44141,2.34375 c -0.58203,3.07422 -1.55859,8.21094 -1.9414,10.53516 l -0.0391,0.21875 1.65625,-0.043 c 2.43359,-0.0625 5.76171,-0.14844 7.80078,-0.16016 l 0.17578,0 0.004,-0.17578 c 0.0234,-0.64453 0.082,-1.69531 0.14454,-2.80859 0.0859,-1.51172 0.17578,-3.17188 0.21484,-4.36719 0.85547,2.16016 2.375,5.61719 3.23437,7.25391 l 0.0508,0.0977 0.11328,0 c 1.83203,0.0117 4.72265,0.0937 7.04297,0.16016 l 2.37109,0.0625 -0.0273,-0.21094 c -0.23047,-1.97656 -0.74219,-5.03906 -1.23829,-8.0039 -0.52343,-3.14063 -1.0664,-6.38672 -1.28906,-8.40625 l -0.0195,-0.16407 -3.87891,-0.004 -3.41796,-0.004 z m -39.83984,3.79296 c 0.63281,-0.0156 0.75,0.0586 0.76953,0.0937 0.0117,0.0195 0.0352,0.11329 -0.17578,0.5 -0.23828,0.4375 -0.56641,0.88282 -0.88672,1.3125 l -0.53906,0.75 0.004,-0.004 c -0.88672,1.32422 -1.74218,2.07422 -2.41015,2.11719 0,0 -0.51172,0.0351 -0.88672,0.0586 0.37109,-0.49609 1.82031,-2.42188 1.82031,-2.42188 0.6875,-0.90625 1.33984,-1.76562 1.79688,-2.39453 0.0859,0 0.50781,-0.0117 0.50781,-0.0117 z m 4.22265,-4.0625 -0.78125,0.0273 -3.85156,-0.0234 -5.87109,-0.0352 -0.0547,0.0977 c -1.30078,2.35156 -2.54687,3.74609 -4.26953,5.67969 -0.56641,0.63281 -1.20313,1.34765 -1.89453,2.15625 -1.53125,1.77344 -2.6836,3.01562 -4.97266,5.48828 -2.0664,2.22656 -5.1914,5.59375 -10.41797,11.33203 l -0.35547,0.39063 0.52344,-0.0859 c 1.19141,-0.19531 3.45703,-0.67578 5.85938,-1.1875 2.97265,-0.63281 6.04297,-1.28516 7.50781,-1.48828 l 0.0742,-0.008 0.0469,-0.0625 c 1.19922,-1.62109 2.32032,-3.05468 3.3125,-4.32031 1.21875,-1.55859 2.1875,-2.79297 2.71094,-3.64062 0.17188,-0.0156 3.16016,-0.33203 3.16016,-0.33203 1.71484,-0.1875 3.48437,-0.37891 4.45312,-0.46094 2.16016,-0.14063 4.85547,-1.69922 6,-2.70703 0.69922,-0.61719 1.97656,-2.53516 2.67578,-4.02735 -0.004,0.0117 0.55078,-0.99609 0.55078,-0.99609 0.92188,-1.66406 1.47657,-2.67188 1.72657,-3.37109 0.16797,-0.46875 0.10547,-0.95704 -0.17578,-1.38282 -0.41016,-0.61718 -1.21485,-1.01953 -2.15625,-1.07031 -1.3125,-0.0742 -2.8711,-0.0117 -3.80079,0.0273"
         id="path5587" />
    </clipPath>
    <radialGradient
       cx="0"
       cy="0"
       r="1"
       fx="0"
       fy="0"
       id="radial0"
       gradientUnits="userSpaceOnUse"
       gradientTransform="matrix(47.716556,0,0,47.716864,313.34599,648.29002)">
      <stop
         id="stop5590"
         style="stop-color:#faa51a;stop-opacity:1"
         offset="0" />
      <stop
         id="stop5592"
         style="stop-color:#f9a41a;stop-opacity:1"
         offset="0.00390625" />
      <stop
         id="stop5594"
         style="stop-color:#f8a21a;stop-opacity:1"
         offset="0.0078125" />
      <stop
         id="stop5596"
         style="stop-color:#f8a11a;stop-opacity:1"
         offset="0.0117188" />
      <stop
         id="stop5598"
         style="stop-color:#f7a01b;stop-opacity:1"
         offset="0.015625" />
      <stop
         id="stop5600"
         style="stop-color:#f69e1b;stop-opacity:1"
         offset="0.0195313" />
      <stop
         id="stop5602"
         style="stop-color:#f69d1b;stop-opacity:1"
         offset="0.0234375" />
      <stop
         id="stop5604"
         style="stop-color:#f69c1b;stop-opacity:1"
         offset="0.0273438" />
      <stop
         id="stop5606"
         style="stop-color:#f69b1b;stop-opacity:1"
         offset="0.03125" />
      <stop
         id="stop5608"
         style="stop-color:#f69a1c;stop-opacity:1"
         offset="0.0351563" />
      <stop
         id="stop5610"
         style="stop-color:#f5981c;stop-opacity:1"
         offset="0.0390625" />
      <stop
         id="stop5612"
         style="stop-color:#f4971c;stop-opacity:1"
         offset="0.0429688" />
      <stop
         id="stop5614"
         style="stop-color:#f4961c;stop-opacity:1"
         offset="0.046875" />
      <stop
         id="stop5616"
         style="stop-color:#f4951c;stop-opacity:1"
         offset="0.0507813" />
      <stop
         id="stop5618"
         style="stop-color:#f3931c;stop-opacity:1"
         offset="0.0546875" />
      <stop
         id="stop5620"
         style="stop-color:#f2921c;stop-opacity:1"
         offset="0.0585938" />
      <stop
         id="stop5622"
         style="stop-color:#f2911d;stop-opacity:1"
         offset="0.0625" />
      <stop
         id="stop5624"
         style="stop-color:#f28f1d;stop-opacity:1"
         offset="0.0664063" />
      <stop
         id="stop5626"
         style="stop-color:#f18e1d;stop-opacity:1"
         offset="0.0703125" />
      <stop
         id="stop5628"
         style="stop-color:#f18d1d;stop-opacity:1"
         offset="0.0742188" />
      <stop
         id="stop5630"
         style="stop-color:#f08c1d;stop-opacity:1"
         offset="0.078125" />
      <stop
         id="stop5632"
         style="stop-color:#ef8b1d;stop-opacity:1"
         offset="0.0820313" />
      <stop
         id="stop5634"
         style="stop-color:#ef8a1d;stop-opacity:1"
         offset="0.0859375" />
      <stop
         id="stop5636"
         style="stop-color:#ef891d;stop-opacity:1"
         offset="0.0898438" />
      <stop
         id="stop5638"
         style="stop-color:#ef881d;stop-opacity:1"
         offset="0.09375" />
      <stop
         id="stop5640"
         style="stop-color:#ef871d;stop-opacity:1"
         offset="0.0976563" />
      <stop
         id="stop5642"
         style="stop-color:#ef861d;stop-opacity:1"
         offset="0.101563" />
      <stop
         id="stop5644"
         style="stop-color:#ee851d;stop-opacity:1"
         offset="0.105469" />
      <stop
         id="stop5646"
         style="stop-color:#ee841e;stop-opacity:1"
         offset="0.109375" />
      <stop
         id="stop5648"
         style="stop-color:#ee821e;stop-opacity:1"
         offset="0.113281" />
      <stop
         id="stop5650"
         style="stop-color:#ed811e;stop-opacity:1"
         offset="0.117188" />
      <stop
         id="stop5652"
         style="stop-color:#ec811e;stop-opacity:1"
         offset="0.121094" />
      <stop
         id="stop5654"
         style="stop-color:#ec801e;stop-opacity:1"
         offset="0.125" />
      <stop
         id="stop5656"
         style="stop-color:#ec7f1e;stop-opacity:1"
         offset="0.128906" />
      <stop
         id="stop5658"
         style="stop-color:#ec7e1e;stop-opacity:1"
         offset="0.13281301" />
      <stop
         id="stop5660"
         style="stop-color:#ec7d1e;stop-opacity:1"
         offset="0.136719" />
      <stop
         id="stop5662"
         style="stop-color:#eb7c1e;stop-opacity:1"
         offset="0.140625" />
      <stop
         id="stop5664"
         style="stop-color:#eb7b1e;stop-opacity:1"
         offset="0.144531" />
      <stop
         id="stop5666"
         style="stop-color:#eb7a1e;stop-opacity:1"
         offset="0.14843801" />
      <stop
         id="stop5668"
         style="stop-color:#ea791e;stop-opacity:1"
         offset="0.152344" />
      <stop
         id="stop5670"
         style="stop-color:#ea781e;stop-opacity:1"
         offset="0.15625" />
      <stop
         id="stop5672"
         style="stop-color:#ea771e;stop-opacity:1"
         offset="0.160156" />
      <stop
         id="stop5674"
         style="stop-color:#ea761e;stop-opacity:1"
         offset="0.16406301" />
      <stop
         id="stop5676"
         style="stop-color:#e9761e;stop-opacity:1"
         offset="0.167969" />
      <stop
         id="stop5678"
         style="stop-color:#e9751f;stop-opacity:1"
         offset="0.171875" />
      <stop
         id="stop5680"
         style="stop-color:#e9741f;stop-opacity:1"
         offset="0.175781" />
      <stop
         id="stop5682"
         style="stop-color:#e8731f;stop-opacity:1"
         offset="0.17968801" />
      <stop
         id="stop5684"
         style="stop-color:#e8721f;stop-opacity:1"
         offset="0.183594" />
      <stop
         id="stop5686"
         style="stop-color:#e8701f;stop-opacity:1"
         offset="0.1875" />
      <stop
         id="stop5688"
         style="stop-color:#e76f1f;stop-opacity:1"
         offset="0.191406" />
      <stop
         id="stop5690"
         style="stop-color:#e76f1f;stop-opacity:1"
         offset="0.19531301" />
      <stop
         id="stop5692"
         style="stop-color:#e76e1f;stop-opacity:1"
         offset="0.199219" />
      <stop
         id="stop5694"
         style="stop-color:#e76d1f;stop-opacity:1"
         offset="0.203125" />
      <stop
         id="stop5696"
         style="stop-color:#e76d1f;stop-opacity:1"
         offset="0.207031" />
      <stop
         id="stop5698"
         style="stop-color:#e76b1f;stop-opacity:1"
         offset="0.21093801" />
      <stop
         id="stop5700"
         style="stop-color:#e66a1f;stop-opacity:1"
         offset="0.214844" />
      <stop
         id="stop5702"
         style="stop-color:#e6691f;stop-opacity:1"
         offset="0.21875" />
      <stop
         id="stop5704"
         style="stop-color:#e6691f;stop-opacity:1"
         offset="0.222656" />
      <stop
         id="stop5706"
         style="stop-color:#e6681f;stop-opacity:1"
         offset="0.22656301" />
      <stop
         id="stop5708"
         style="stop-color:#e6671f;stop-opacity:1"
         offset="0.230469" />
      <stop
         id="stop5710"
         style="stop-color:#e6661f;stop-opacity:1"
         offset="0.234375" />
      <stop
         id="stop5712"
         style="stop-color:#e5651f;stop-opacity:1"
         offset="0.238281" />
      <stop
         id="stop5714"
         style="stop-color:#e5641f;stop-opacity:1"
         offset="0.24218801" />
      <stop
         id="stop5716"
         style="stop-color:#e5631f;stop-opacity:1"
         offset="0.246094" />
      <stop
         id="stop5718"
         style="stop-color:#e4621f;stop-opacity:1"
         offset="0.25" />
      <stop
         id="stop5720"
         style="stop-color:#e4611f;stop-opacity:1"
         offset="0.25390601" />
      <stop
         id="stop5722"
         style="stop-color:#e4601f;stop-opacity:1"
         offset="0.25781301" />
      <stop
         id="stop5724"
         style="stop-color:#e35f1f;stop-opacity:1"
         offset="0.26171899" />
      <stop
         id="stop5726"
         style="stop-color:#e35f1f;stop-opacity:1"
         offset="0.26953101" />
      <stop
         id="stop5728"
         style="stop-color:#e35e1f;stop-opacity:1"
         offset="0.27343801" />
      <stop
         id="stop5730"
         style="stop-color:#e25d1f;stop-opacity:1"
         offset="0.27734399" />
      <stop
         id="stop5732"
         style="stop-color:#e25c1f;stop-opacity:1"
         offset="0.28125" />
      <stop
         id="stop5734"
         style="stop-color:#e25b1f;stop-opacity:1"
         offset="0.28515601" />
      <stop
         id="stop5736"
         style="stop-color:#e25a20;stop-opacity:1"
         offset="0.28906301" />
      <stop
         id="stop5738"
         style="stop-color:#e25920;stop-opacity:1"
         offset="0.296875" />
      <stop
         id="stop5740"
         style="stop-color:#e15820;stop-opacity:1"
         offset="0.30078101" />
      <stop
         id="stop5742"
         style="stop-color:#e15720;stop-opacity:1"
         offset="0.30468801" />
      <stop
         id="stop5744"
         style="stop-color:#e15620;stop-opacity:1"
         offset="0.30859399" />
      <stop
         id="stop5746"
         style="stop-color:#e15520;stop-opacity:1"
         offset="0.3125" />
      <stop
         id="stop5748"
         style="stop-color:#e15420;stop-opacity:1"
         offset="0.31640601" />
      <stop
         id="stop5750"
         style="stop-color:#e15320;stop-opacity:1"
         offset="0.32421899" />
      <stop
         id="stop5752"
         style="stop-color:#e15220;stop-opacity:1"
         offset="0.328125" />
      <stop
         id="stop5754"
         style="stop-color:#e15120;stop-opacity:1"
         offset="0.33203101" />
      <stop
         id="stop5756"
         style="stop-color:#e05020;stop-opacity:1"
         offset="0.33593801" />
      <stop
         id="stop5758"
         style="stop-color:#e04f20;stop-opacity:1"
         offset="0.33984399" />
      <stop
         id="stop5760"
         style="stop-color:#e04e20;stop-opacity:1"
         offset="0.34765601" />
      <stop
         id="stop5762"
         style="stop-color:#e04d20;stop-opacity:1"
         offset="0.35156301" />
      <stop
         id="stop5764"
         style="stop-color:#e04c20;stop-opacity:1"
         offset="0.35546899" />
      <stop
         id="stop5766"
         style="stop-color:#df4b20;stop-opacity:1"
         offset="0.359375" />
      <stop
         id="stop5768"
         style="stop-color:#df4a20;stop-opacity:1"
         offset="0.36328101" />
      <stop
         id="stop5770"
         style="stop-color:#df4920;stop-opacity:1"
         offset="0.37109399" />
      <stop
         id="stop5772"
         style="stop-color:#df4820;stop-opacity:1"
         offset="0.375" />
      <stop
         id="stop5774"
         style="stop-color:#df4720;stop-opacity:1"
         offset="0.38281301" />
      <stop
         id="stop5776"
         style="stop-color:#de4620;stop-opacity:1"
         offset="0.38671899" />
      <stop
         id="stop5778"
         style="stop-color:#de4520;stop-opacity:1"
         offset="0.390625" />
      <stop
         id="stop5780"
         style="stop-color:#de4420;stop-opacity:1"
         offset="0.39453101" />
      <stop
         id="stop5782"
         style="stop-color:#dd4320;stop-opacity:1"
         offset="0.40234399" />
      <stop
         id="stop5784"
         style="stop-color:#dd4220;stop-opacity:1"
         offset="0.40625" />
      <stop
         id="stop5786"
         style="stop-color:#dd4120;stop-opacity:1"
         offset="0.41406301" />
      <stop
         id="stop5788"
         style="stop-color:#dd4020;stop-opacity:1"
         offset="0.41796899" />
      <stop
         id="stop5790"
         style="stop-color:#dc3f20;stop-opacity:1"
         offset="0.42578101" />
      <stop
         id="stop5792"
         style="stop-color:#dc3e20;stop-opacity:1"
         offset="0.42968801" />
      <stop
         id="stop5794"
         style="stop-color:#dc3d20;stop-opacity:1"
         offset="0.4375" />
      <stop
         id="stop5796"
         style="stop-color:#dc3c20;stop-opacity:1"
         offset="0.44140601" />
      <stop
         id="stop5798"
         style="stop-color:#dc3b20;stop-opacity:1"
         offset="0.44921899" />
      <stop
         id="stop5800"
         style="stop-color:#db3a20;stop-opacity:1"
         offset="0.45703101" />
      <stop
         id="stop5802"
         style="stop-color:#db3920;stop-opacity:1"
         offset="0.46093801" />
      <stop
         id="stop5804"
         style="stop-color:#db3820;stop-opacity:1"
         offset="0.46875" />
      <stop
         id="stop5806"
         style="stop-color:#db3720;stop-opacity:1"
         offset="0.47265601" />
      <stop
         id="stop5808"
         style="stop-color:#db3620;stop-opacity:1"
         offset="0.48046899" />
      <stop
         id="stop5810"
         style="stop-color:#db3520;stop-opacity:1"
         offset="0.484375" />
      <stop
         id="stop5812"
         style="stop-color:#db3420;stop-opacity:1"
         offset="0.48828101" />
      <stop
         id="stop5814"
         style="stop-color:#db3320;stop-opacity:1"
         offset="0.49218801" />
      <stop
         id="stop5816"
         style="stop-color:#da3220;stop-opacity:1"
         offset="0.49609399" />
      <stop
         id="stop5818"
         style="stop-color:#da3220;stop-opacity:1"
         offset="0.50390601" />
      <stop
         id="stop5820"
         style="stop-color:#da3120;stop-opacity:1"
         offset="0.50781298" />
      <stop
         id="stop5822"
         style="stop-color:#da3120;stop-opacity:1"
         offset="0.51171899" />
      <stop
         id="stop5824"
         style="stop-color:#da3020;stop-opacity:1"
         offset="0.515625" />
      <stop
         id="stop5826"
         style="stop-color:#da3020;stop-opacity:1"
         offset="0.51953101" />
      <stop
         id="stop5828"
         style="stop-color:#da2f20;stop-opacity:1"
         offset="0.52343798" />
      <stop
         id="stop5830"
         style="stop-color:#da2e20;stop-opacity:1"
         offset="0.52734399" />
      <stop
         id="stop5832"
         style="stop-color:#da2d20;stop-opacity:1"
         offset="0.53125" />
      <stop
         id="stop5834"
         style="stop-color:#da2d20;stop-opacity:1"
         offset="0.53515601" />
      <stop
         id="stop5836"
         style="stop-color:#da2c20;stop-opacity:1"
         offset="0.53906298" />
      <stop
         id="stop5838"
         style="stop-color:#d92c20;stop-opacity:1"
         offset="0.54296899" />
      <stop
         id="stop5840"
         style="stop-color:#d92b20;stop-opacity:1"
         offset="0.546875" />
      <stop
         id="stop5842"
         style="stop-color:#d92a20;stop-opacity:1"
         offset="0.55078101" />
      <stop
         id="stop5844"
         style="stop-color:#d92920;stop-opacity:1"
         offset="0.55468798" />
      <stop
         id="stop5846"
         style="stop-color:#d92920;stop-opacity:1"
         offset="0.55859399" />
      <stop
         id="stop5848"
         style="stop-color:#d92920;stop-opacity:1"
         offset="0.5625" />
      <stop
         id="stop5850"
         style="stop-color:#d92820;stop-opacity:1"
         offset="0.56640601" />
      <stop
         id="stop5852"
         style="stop-color:#d92720;stop-opacity:1"
         offset="0.57031298" />
      <stop
         id="stop5854"
         style="stop-color:#d92720;stop-opacity:1"
         offset="0.57421899" />
      <stop
         id="stop5856"
         style="stop-color:#d92620;stop-opacity:1"
         offset="0.578125" />
      <stop
         id="stop5858"
         style="stop-color:#d92620;stop-opacity:1"
         offset="0.58984399" />
      <stop
         id="stop5860"
         style="stop-color:#d92520;stop-opacity:1"
         offset="0.59375" />
      <stop
         id="stop5862"
         style="stop-color:#d92420;stop-opacity:1"
         offset="0.59765601" />
      <stop
         id="stop5864"
         style="stop-color:#d92420;stop-opacity:1"
         offset="0.60156298" />
      <stop
         id="stop5866"
         style="stop-color:#d82320;stop-opacity:1"
         offset="0.60546899" />
      <stop
         id="stop5868"
         style="stop-color:#d82320;stop-opacity:1"
         offset="0.609375" />
      <stop
         id="stop5870"
         style="stop-color:#d82320;stop-opacity:1"
         offset="0.61328101" />
      <stop
         id="stop5872"
         style="stop-color:#d82220;stop-opacity:1"
         offset="0.61718798" />
      <stop
         id="stop5874"
         style="stop-color:#d82120;stop-opacity:1"
         offset="0.62109399" />
      <stop
         id="stop5876"
         style="stop-color:#d82120;stop-opacity:1"
         offset="0.625" />
      <stop
         id="stop5878"
         style="stop-color:#d82020;stop-opacity:1"
         offset="0.62890601" />
      <stop
         id="stop5880"
         style="stop-color:#d82020;stop-opacity:1"
         offset="0.63671899" />
      <stop
         id="stop5882"
         style="stop-color:#d81f20;stop-opacity:1"
         offset="0.640625" />
      <stop
         id="stop5884"
         style="stop-color:#d81e20;stop-opacity:1"
         offset="0.64453101" />
      <stop
         id="stop5886"
         style="stop-color:#d81d20;stop-opacity:1"
         offset="0.66406298" />
      <stop
         id="stop5888"
         style="stop-color:#d81d20;stop-opacity:1"
         offset="0.68359399" />
      <stop
         id="stop5890"
         style="stop-color:#d81c20;stop-opacity:1"
         offset="0.69140601" />
      <stop
         id="stop5892"
         style="stop-color:#d81b20;stop-opacity:1"
         offset="0.69531298" />
      <stop
         id="stop5894"
         style="stop-color:#d81b20;stop-opacity:1"
         offset="0.71093798" />
      <stop
         id="stop5896"
         style="stop-color:#d81a20;stop-opacity:1"
         offset="0.72656298" />
      <stop
         id="stop5898"
         style="stop-color:#d81920;stop-opacity:1"
         offset="0.73046899" />
      <stop
         id="stop5900"
         style="stop-color:#d71920;stop-opacity:1"
         offset="0.76171899" />
      <stop
         id="stop5902"
         style="stop-color:#d71920;stop-opacity:1"
         offset="0.87890601" />
      <stop
         id="stop5904"
         style="stop-color:#d71920;stop-opacity:1"
         offset="0.9375" />
      <stop
         id="stop5906"
         style="stop-color:#d71920;stop-opacity:1"
         offset="0.96875" />
      <stop
         id="stop5908"
         style="stop-color:#d71920;stop-opacity:1"
         offset="0.984375" />
      <stop
         id="stop5910"
         style="stop-color:#d71920;stop-opacity:1"
         offset="0.99218798" />
      <stop
         id="stop5912"
         style="stop-color:#d71920;stop-opacity:1"
         offset="0.99609399" />
      <stop
         id="stop5914"
         style="stop-color:#d71920;stop-opacity:1"
         offset="1" />
    </radialGradient>
  </defs>
  <metadata
     id="metadata28010">
    <rdf:RDF>
      <cc:Work
         rdf:about="">
        <dc:format>image/svg+xml</dc:format>
        <dc:type
           rdf:resource="http://purl.org/dc/dcmitype/StillImage" />
        <cc:license
           rdf:resource="" />
        <dc:title></dc:title>
      </cc:Work>
    </rdf:RDF>
  </metadata>
  <g
     transform="translate(-47.142842,-322.73964)"
     id="layer1">
    <g
       transform="matrix(1.25,0,0,1.25,-272.32766,-643.69512)"
       id="g27790">
      <path
         d="m 305.47544,810.44129 c -0.7989,1.19479 -2.73604,3.86014 -4.61661,3.98033 -0.4242,0.0212 -1.90887,0.12018 -2.32599,0.14841 2.4391,-3.31576 5.46499,-7.20418 7.06985,-9.42411 0.48782,-0.0145 0.60094,-0.007 1.08875,-0.0212 1.88058,-0.0496 2.07147,0.2828 1.37155,1.56244 -0.6999,1.28672 -1.79573,2.56636 -2.58755,3.75409 z m 19.79559,-8.80196 c 0.0145,-0.60096 -0.0282,-2.62292 -0.0282,-3.32992 -1.8523,0.28987 -2.61584,0.4242 -4.10758,0.33936 -3.24506,-0.18381 -7.14762,-0.16959 -8.20811,-0.16959 -2.00782,0 -9.0706,-0.0565 -17.42717,-0.099 -3.17437,5.74073 -6.22147,8.44142 -11.17038,14.23869 -7.95358,27.64313 -11.82079,9.46653 -28.65411,27.91885 0,1.48468 0,0.96857 0,2.86329 4.80044,-0.77768 20.17736,-4.51056 24.99194,-5.17513 4.95597,-6.69515 9.34634,-11.82079 10.97947,-14.52148 3.0966,-0.28985 10.84516,-1.18774 13.94176,-1.44932 3.92377,-0.2545 8.75247,-3.13195 10.66841,-4.82163 1.23721,-1.08876 3.49957,-4.49644 4.76507,-7.17592 2.29064,-4.1712 3.57734,-6.40528 4.10759,-7.87581 0.0849,-0.2545 0.13429,-0.50195 0.14135,-0.74232"
         id="path13856"
         style="fill:#ffca02;fill-opacity:1;fill-rule:nonzero;stroke:none;clip-rule:evenodd" />
      <path
         d="m 381.441,798.67706 c 0,3.08952 -2.17751,7.48697 -2.17751,10.5765 -1.7604,-3.13903 -3.73288,-7.38094 -5.4862,-10.64722 -4.77923,0 -9.311,-2.99761 -14.01953,-3.00467 0,0.62214 -0.0145,2.27649 -0.0145,2.99761 0.70699,1.77454 0.59388,4.96305 0.34643,6.36994 -0.2121,1.21601 -3.42182,13.49635 -4.68733,20.5662 0,1.18066 0,1.95835 0,2.79259 4.46815,-0.11311 12.98734,-0.33935 17.45549,-0.36764 -0.0637,-2.84207 -0.32522,-11.96218 0.0282,-15.24259 1.31499,3.54907 4.95597,11.79958 6.73758,15.19311 4.44693,0.0353 12.95197,0.24745 17.3989,0.36057 -0.10605,-0.89081 -0.20502,-1.50588 -0.36056,-2.60171 -1.14531,-7.92531 -4.26312,-20.79951 -4.95596,-27.07047 -4.45402,0.007 -5.81143,0.0778 -10.26544,0.0778"
         id="path13858"
         style="fill:#ffca02;fill-opacity:1;fill-rule:nonzero;stroke:none;clip-rule:evenodd" />
      <path
         d="m 418.17597,818.28881 c 0.99684,2.78554 -0.36765,2.99762 -2.07855,2.91987 -0.50903,-0.0282 -1.74624,-0.12018 -2.25527,-0.14135 -1.15239,-4.27726 -3.6834,-12.52777 -4.89235,-16.97473 0.48076,0.007 1.95129,0.1343 2.43911,0.14136 2.00783,0.14841 2.62291,2.28356 3.11779,3.74701 0.49489,1.44226 2.66534,7.50111 3.66927,10.30784 z m 6.90723,-17.27871 c -2.02196,-1.23722 -4.53884,-2.62292 -6.90723,-2.55928 -7.86168,0.0282 -12.34396,0.0282 -20.20564,0.0423 -0.41712,0 -4.06518,-2.96933 -5.43672,-2.96225 0,0.49487 -0.0282,2.60876 -0.0282,3.02589 1.35035,2.19871 2.67242,6.2356 4.3904,15.37692 1.71795,9.14134 1.72503,9.58673 2.51685,14.62754 7.61423,0.2828 19.76025,1.35741 27.36034,1.90179 2.65119,0.18381 7.11228,1.17358 9.62914,-0.70699 1.27964,-0.95443 1.61899,-1.8735 1.61899,-4.34796 0,-1.01806 -0.0565,-1.6897 -0.0565,-3.12487 -4.48228,-2.4391 -4.27018,-6.51134 -6.08714,-9.8271 -2.72896,-4.96304 -5.28824,-10.51994 -6.79413,-11.44609"
         id="path13860"
         style="fill:#ffca02;fill-opacity:1;fill-rule:nonzero;stroke:none;clip-rule:evenodd" />
      <path
         d="m 337.24735,812.41377 c 1.011,-2.15631 1.23015,-3.52786 2.24115,-5.68415 0.85545,-1.84525 0.72112,-2.19874 2.42496,-2.1351 1.57657,-0.0423 1.80988,0.86252 1.14531,2.29062 -0.52317,1.3362 -1.47053,4.49644 -1.90179,5.42965 -1.45639,0.0565 -2.45324,0.0423 -3.90963,0.099 z m 20.25513,-4.18535 c 0.2828,-1.26551 0.55145,-2.36839 0.60094,-3.33697 0.0708,-1.42105 -0.0849,-4.09345 -0.21916,-5.11151 -0.96858,-2.31891 -3.52786,-1.13823 -6.03766,-1.1736 -5.32361,-0.007 -9.34634,-0.0353 -14.66287,-0.0565 -6.67394,-0.0282 -9.7352,3.69048 -11.93391,7.43042 -2.82795,5.64175 -11.07848,16.64245 -14.77599,23.74765 -0.0353,1.39276 -0.0282,1.1241 -0.12724,2.81379 5.02668,-0.55144 15.0093,-1.65434 19.97942,-2.07852 1.2443,-2.66535 2.77138,-7.76978 4.01568,-10.44218 1.44932,-0.0849 2.75017,-0.16958 4.19241,-0.24744 -0.67871,1.91592 -3.17435,4.99839 -4.09345,7.53646 0,1.15238 -0.0282,1.66847 -0.0282,2.70774 4.94183,-0.34641 13.97709,-1.01806 18.86943,-1.24429 1.68969,-7.93237 2.14216,-11.23399 4.2207,-20.54499"
         id="path13862"
         style="fill:#ffca02;fill-opacity:1;fill-rule:nonzero;stroke:none;clip-rule:evenodd" />
      <path
         d="m 450.90231,814.6832 c -4.01567,-5.81142 -5.79021,-8.51211 -6.01644,-8.87973 -0.22624,-0.36764 -0.39592,-0.55853 1.0534,-0.54438 1.44932,0.0145 2.26943,0.30399 4.29141,3.06124 0.6575,1.011 3.76116,4.86405 4.81456,6.66688 -1.4281,-0.099 -2.71482,-0.2121 -4.14293,-0.30401 z m 44.66734,24.07991 c -8.53332,-5.41549 -21.62668,-20.53085 -23.84661,-23.00529 -4.98426,-5.64882 -8.12328,-9.51604 -11.1209,-12.34398 -2.1775,-2.05731 -4.63782,-3.39353 -6.51132,-3.86719 -4.4328,-1.12412 -4.86406,-0.91909 -11.78545,-0.91909 -4.02981,0 -7.09106,-0.0778 -9.90487,0.12723 -1.20895,0.0919 -0.0423,0.50195 -3.2097,-0.16271 0,0.82011 -0.0212,2.60878 -0.0145,3.22385 0.0353,3.35819 4.19951,9.53018 8.01014,16.60709 3.11074,5.71952 6.61033,11.95512 7.91824,14.29524 9.62208,1.44226 16.81918,2.63 21.57012,3.31576 0,-1.36447 -0.0282,-1.4988 -0.0282,-2.67947 -4.72267,-6.66687 -8.04549,-7.77683 -9.29686,-9.65035 1.40689,0.13429 3.17437,0.43126 4.58126,0.57266 1.7604,2.26942 6.28511,8.34242 9.60793,12.65505 4.78629,0.68576 19.26535,4.02273 24.0375,4.83577 0,-1.05341 -0.007,-1.66142 -0.007,-3.0047"
         id="path13864"
         style="fill:#ffca02;fill-opacity:1;fill-rule:nonzero;stroke:none;clip-rule:evenodd" />
      <g
         transform="matrix(1.8098824,0,0,1.8098824,-191.54938,-355.56131)"
         clip-path="url(#clip941)"
         id="g13866"
         style="clip-rule:nonzero">
        <path
           d="m 247.04687,635.66406 0,25.21485 132.59766,0 0,-25.21485 z"
           id="path13868"
           style="fill:url(#radial0);fill-rule:nonzero;stroke:none" />
      </g>
      <path
         d="m 393.25474,788.15004 c 0,0 -0.10606,2.00077 -0.0778,3.54199 0.007,0.62923 -3.42182,1.35741 -3.60563,1.61194 -0.26866,0.36762 -1.48466,-0.48782 -1.96542,-0.48076 -0.83423,0.007 -1.22309,-0.82717 -1.22309,-1.63313 0,-2.07854 0,-4.00154 0,-6.08714 0,-0.85546 1.30793,-2.82794 1.30793,-2.82794 3.2592,-0.0424 7.11228,-1.06049 10.16646,0.35348 0,-1.79574 -0.0637,-1.1029 -0.0637,-2.90571 -3.23799,0.14841 -6.91431,0.26158 -10.15938,0.35349 -1.7604,0.0353 -3.52078,0.0637 -5.28826,0.0849 -2.05025,-0.0212 -6.08714,0.19795 -6.03058,3.3794 0,2.87742 0,5.74779 0,8.61813 0,1.61194 0.24745,2.2058 1.22308,2.82089 1.32207,0.83424 2.934,1.04633 4.46815,0.98977 3.08247,-0.0145 9.72106,-0.0353 9.72106,-0.0353 l -0.12018,-1.48466 c 0,0 1.25137,1.47761 1.50588,1.47761 2.02906,-0.0145 4.04397,-0.0212 6.00231,-0.0353 0,-3.12487 0,-5.77606 0,-8.90093 -3.82479,0.12018 -2.02906,1.08876 -5.8609,1.15945"
         id="path13876"
         style="fill:#eb1923;fill-opacity:1;fill-rule:nonzero;stroke:none;clip-rule:evenodd" />
      <path
         d="m 322.2027,795.50976 c 0,0 -3.31576,-6.88604 -4.99837,-10.17353 1.52001,-2.69361 3.02589,-5.49326 4.57419,-8.16568 -0.30401,-0.0282 -0.54438,-0.11312 -0.86252,-0.18381 -3.45009,-0.31814 -7.17591,-0.42419 -10.56237,-0.84839 -1.09583,2.37548 -1.8028,4.57421 -2.87742,6.94968 0.007,-2.5098 0.0565,-5.1115 0.0635,-7.62838 -1.9937,-0.46661 -10.08161,-0.79888 -12.0329,-1.11704 0.69286,2.96227 0.92615,5.33774 0.94031,8.3707 0,4.00154 0.0212,12.18844 0.0212,12.18844 l 9.92609,0.55851 1.19481,0.0424 -0.0212,-6.8224 13.59533,6.82948 1.03926,0"
         id="path13878"
         style="fill:#eb1923;fill-opacity:1;fill-rule:nonzero;stroke:none;clip-rule:evenodd" />
      <path
         d="m 444.01627,775.46673 c -0.10606,0.0212 -0.80596,0.14841 -0.9615,0.16958 0.44541,1.47759 0.78477,2.84208 0.82011,4.8782 0,2.98348 0,5.64174 0,8.62523 0,1.15237 -0.0496,1.93005 -1.03221,1.97248 -0.97563,0.0494 -1.30791,-0.62923 -1.30791,-1.76746 0,-4.4823 0,-8.97164 0,-13.45394 -1.86644,0.43126 -3.71167,0.71405 -5.62761,0.99684 -1.79573,0.26866 -3.61977,0.34643 -5.36601,0.55853 -0.31814,0.0565 -0.64336,0.11312 -0.9615,0.16959 0.68578,2.68653 0.89786,5.24584 0.97563,8.01722 0,-0.007 0,-0.007 0,-0.0145 0,1.91594 0,3.9874 0,5.90333 0,1.80988 1.44226,4.28433 6.17199,4.28433 2.91277,-0.0494 6.85775,-0.0565 11.24813,-0.0424 2.03612,0.0353 4.27726,-0.19794 5.95989,-1.45639 1.01806,-0.76354 1.3857,-1.75333 1.3857,-3.74702 0,-5.3943 -3.25922,-7.43748 -3.25922,-12.83178 -2.51686,0.41713 -7.86874,-2.21287 -8.04549,-2.26235"
         id="path13880"
         style="fill:#eb1923;fill-opacity:1;fill-rule:nonzero;stroke:none;clip-rule:evenodd" />
      <path
         d="m 346.83408,779.11476 c -3.30871,-0.19089 -8.80197,0.98271 -9.79176,0.90494 0,0 -0.89786,0.14135 -0.89786,2.74311 0,2.58757 0,5.44379 0,8.02428 0,1.00392 0.0423,1.32914 -0.9615,1.30085 -1.01098,-0.0212 -1.34328,-0.36762 -1.34328,-1.37862 0,-3.68338 0,-8.10205 0,-12.42173 -0.23329,-0.0212 -0.45247,-0.0635 -0.67871,-0.0849 -3.61976,-0.2121 -6.18612,0.34641 -9.94021,-0.0282 0.6787,2.73604 1.13825,4.36917 1.2231,7.17591 0,0 2.22699,1.15237 2.22699,1.15237 0,1.89473 -4.18536,2.70069 -4.18536,4.60248 0,1.79575 0.47368,1.923 1.55538,2.71483 1.40689,1.03221 3.0471,1.55537 4.80042,1.49174 3.57736,0.0424 7.34559,0.28987 10.92293,0.32521 2.05733,0.0494 4.2207,0.16253 6.06593,-0.82011 1.06756,-0.56559 1.42811,-1.32204 1.42811,-2.8845 0,-4.2207 0,-8.43432 0,-12.65502 -0.12018,-0.0496 -0.16959,-0.0637 -0.42418,-0.16271 z m 26.97148,0.69992 c -0.68577,-0.007 -1.17358,0.99685 -1.85937,0.99685 -2.61584,0.0145 -5.3943,-0.94029 -8.03843,-0.98978 0,2.30478 0,4.92768 0,7.2254 -1.44931,-2.32599 -2.8845,-4.97718 -4.31968,-7.3173 -0.0708,-0.0353 -0.16253,-0.099 -0.26158,-0.13429 -3.32282,-0.10606 -6.61031,-0.10606 -9.93314,-0.25453 0,0 0,0 0,0 -0.48074,-0.0212 0.17682,0.21918 -0.29693,0.19089 0.7989,1.44226 0.26158,2.82794 0.29693,4.46815 0,3.90963 2.227,5.62761 2.227,9.5443 3.3087,0.0212 4.39746,2.07855 7.71322,2.09976 0.11311,-0.0353 0.18381,-0.0565 0.2545,-0.0778 0,-1.19481 0,-1.56951 0,-2.76432 0,-0.12724 -0.007,-0.25451 -0.0145,-0.39591 0,-1.46346 0,-2.19164 0,-3.65512 1.44226,2.35426 2.87744,4.41867 4.32676,6.76585 3.34403,0.007 6.56082,0.15547 9.90485,0.16271 0.0424,-0.0212 0.16959,0.56559 0.25453,0.50903 0,-5.28826 0.0423,-10.99362 0.0423,-16.28188 -0.0565,-0.0282 -0.19089,-0.0565 -0.29695,-0.0919"
         id="path13882"
         style="fill:#eb1923;fill-opacity:1;fill-rule:nonzero;stroke:none;clip-rule:evenodd" />
      <path
         d="m 388.3836,786.93403 c -0.0565,0.0565 -0.0849,0.0778 -0.16959,0.16959 0,0 1.36449,2.17043 1.39984,3.71167 0.007,0.6292 -0.0778,1.01098 -0.27574,1.2655 -0.28985,0.36763 -0.69284,0.52317 -1.20893,0.52317 -0.91201,0.007 -1.32206,-0.82011 -1.32206,-1.63315 0,-2.07852 0,-4.00152 0,-6.08006 0,-0.86252 0.41005,-1.25137 1.36447,-1.26551 0.0496,0 0.099,0 0.14841,0 0,0 0,0 0,0 3.53494,-0.0423 7.53648,0.0282 10.85224,1.44226 0.28279,-0.0778 0.21915,-0.0637 0.38177,-0.11312 -0.304,-1.70384 -0.38177,-3.73996 -0.38177,-5.4438 -3.51373,0.14135 -7.50112,0.26158 -11.01484,0.35351 -1.90886,0.0353 -3.81771,0.0565 -5.72658,0.0778 -2.227,-0.0145 -4.17121,0.26866 -4.10052,3.45009 0,2.87037 -0.50903,5.16101 -0.50903,8.03843 0,1.61194 -0.5373,1.85937 0.52318,2.47445 1.42811,0.83425 2.14216,0.97564 3.80358,0.91908 6.02351,-0.0145 11.87028,-0.0145 17.8938,-0.0494 0,-3.12489 0.0919,-4.34089 0.0919,-7.46576 -3.20972,0.0849 -6.80827,-0.43834 -11.7501,-0.3747"
         id="path13884"
         style="fill:#eb1923;fill-opacity:1;fill-rule:nonzero;stroke:none;clip-rule:evenodd" />
      <path
         d="m 410.58295,779.12891 c -0.16959,0.0282 -0.38178,0.0919 -0.57267,0.14136 1.04633,2.07854 1.26551,4.44693 1.37863,6.75171 0,3.34404 0,6.18612 0,9.53015 3.53491,-0.0353 7.39507,0.0423 10.93706,0 0,-2.21993 0,-4.20655 0,-6.42649 1.27257,-0.0565 1.90885,-0.0849 3.18851,-0.14136 2.33304,0.16253 2.99762,0.98272 2.99762,0.98272 0.45952,-0.0637 0.53729,-0.0637 0.86251,-0.0919 -0.47368,-1.2655 -0.55853,-3.81065 -0.55853,-5.19635 -2.16337,0.14841 -4.32674,0.28987 -6.49011,0.4242 0,-1.16652 0,-1.75332 0,-2.91985 1.03927,-0.0778 1.55536,-0.12017 2.59463,-0.19796 2.91279,-0.0282 3.60563,0.79182 3.60563,0.79182 0.32522,-0.0424 0.72113,-0.0849 0.84838,-0.10606 -0.60093,-1.56951 -2.44616,-2.14217 -2.44616,-3.81065 -5.98818,0.61507 -10.32907,-0.15547 -16.3455,0.26866"
         id="path13886"
         style="fill:#eb1923;fill-opacity:1;fill-rule:nonzero;stroke:none;clip-rule:evenodd" />
      <path
         d="m 321.36847,795.50976 c 0,0 -3.46424,-7.0345 -5.15393,-10.32905 1.52001,-2.69363 3.15316,-5.5145 4.70146,-8.1869 -3.69754,-0.38885 -7.60717,-0.84838 -11.30471,-1.30085 -1.08875,2.36839 -2.17045,4.99839 -3.24506,7.37386 0.0145,-2.51688 0.0212,-5.28826 0.0282,-7.79806 -1.99369,-0.27572 -9.85537,-1.80988 -11.80666,-2.12095 0.69284,2.9552 0.91908,6.44771 0.93323,9.48067 l 0.007,0 c -0.007,4.00155 -0.007,12.83178 -0.007,12.83178 l 10.87343,0 -0.0282,-8.76662 3.24506,8.76662 11.75718,0.0496"
         id="path13888"
         style="fill:#f0bf05;fill-opacity:1;fill-rule:nonzero;stroke:none;clip-rule:evenodd" />
      <path
         d="m 444.00921,775.46673 c 0.45247,1.47758 0.78475,2.84207 0.8201,4.88527 0,2.9764 0,5.64173 0,8.61815 0,1.15237 -0.0494,1.93006 -1.02514,1.97956 -0.98269,0.0424 -1.30791,-0.6363 -1.30791,-1.77454 0,-4.4823 0,-8.96458 0,-13.45394 -3.87429,0.50903 -8.07378,1.2938 -11.9622,1.72505 0.68578,2.68654 0.90494,5.24584 0.97565,8.01722 0,-0.007 0.007,-0.007 0.007,-0.0145 0,1.91594 0,3.98741 0,5.90333 0,1.80989 1.43518,4.28434 6.16491,4.28434 2.91279,-0.0494 6.86483,-0.0565 11.24815,-0.0424 2.04318,0.0353 4.27726,-0.19795 5.95987,-1.44932 1.02514,-0.76354 1.3857,-1.7604 1.3857,-3.75409 0,-5.39431 0,-11.58749 0,-16.98179 -2.9764,0.4949 -11.2552,1.91593 -12.26619,2.05733"
         id="path13890"
         style="fill:#f0bf05;fill-opacity:1;fill-rule:nonzero;stroke:none;clip-rule:evenodd" />
      <path
         d="m 388.37652,786.93403 c 0,0 1.58365,2.21993 1.61902,3.76823 0.007,0.62215 -0.0778,1.01098 -0.27574,1.26551 -0.28985,0.36762 -0.69284,0.51609 -1.20895,0.52316 -0.912,0.007 -1.32206,-0.82717 -1.32206,-1.63315 0,-2.0856 0,-4.00152 0,-6.08714 0,-0.85544 0.41006,-1.24429 1.36449,-1.2655 0.0494,0 0.099,0 0.14841,0.007 0,-0.007 0,-0.007 0,-0.007 3.54199,-0.0423 7.53646,0.0282 10.85223,1.44933 0,-1.80282 0,-3.76117 0,-5.56397 -3.51372,0.14135 -7.50113,0.26158 -11.01483,0.35348 -1.90887,0.0353 -3.81773,0.0637 -5.72658,0.0778 -2.22701,-0.0145 -6.60325,0.20502 -6.53963,3.38645 0,2.87744 0,5.74779 0,8.61816 0,1.61193 0.26866,2.19871 1.32207,2.82086 1.43518,0.82719 3.18144,1.04635 4.84284,0.98271 6.02353,-0.007 12.52779,-0.0919 18.5513,-0.12723 0,-3.12487 0,-5.71952 0,-8.84439 -4.14999,0.11312 -8.46262,0.20502 -12.61262,0.27573"
         id="path13892"
         style="fill:#f0bf05;fill-opacity:1;fill-rule:nonzero;stroke:none;clip-rule:evenodd" />
      <path
         d="m 410.57587,779.12891 c 1.04633,2.07853 1.25843,4.454 1.37155,6.7517 0,3.34405 0,6.31339 0,9.6645 3.54199,-0.0353 7.40215,0.0423 10.93706,0 0,-2.21993 0,-4.3409 0,-6.56083 1.27964,-0.0494 1.91593,-0.0778 3.18851,-0.14135 2.40374,0.11312 3.30162,1.03221 3.30162,1.03221 0,-1.78161 0,-3.55614 0,-5.33774 -2.16337,0.14841 -4.32676,0.28986 -6.49013,0.42419 0,-1.16653 0,-1.75333 0,-2.91985 1.03927,-0.0778 1.56244,-0.12018 2.60171,-0.19795 2.91279,-0.0282 3.88842,0.83423 3.88842,0.83423 0,-1.76746 0,-3.52786 0,-5.29532 -6.15077,0.63629 -12.62675,1.32207 -18.79874,1.74627"
         id="path13894"
         style="fill:#f0bf05;fill-opacity:1;fill-rule:nonzero;stroke:none;clip-rule:evenodd" />
      <path
         d="m 363.65326,779.68035 c 0,2.2977 0,4.92062 0,7.22539 -1.44226,-2.32599 -2.8845,-4.98425 -4.31968,-7.3173 -3.40061,-0.10606 -6.79414,-0.24037 -10.19473,-0.38883 0,0 0,0 0,0 -0.48076,-0.0212 -0.71405,-0.0353 -1.19481,-0.0565 0.7989,1.43518 1.15946,3.07539 1.19481,4.71559 0,3.90962 0,7.81926 0,11.73595 3.40059,0.0212 6.8012,0.0353 10.19473,0.0496 0,-1.19481 0,-1.78869 0,-2.99056 0,-0.12017 -0.007,-0.24744 -0.0145,-0.38883 0,-1.46347 0,-2.19166 0,-3.65511 1.97248,3.22385 3.40766,5.53568 4.31968,7.02035 3.38645,0.007 6.77998,0.0496 10.16643,0.0496 0,-5.28826 0,-10.5765 0,-15.86476 -3.38645,-0.0212 -6.76584,-0.0708 -10.1523,-0.13429 z m -28.60463,-1.3362 c 0,0 0.84838,1.67555 0.8413,4.27726 0,2.58757 0,5.4438 0,8.02429 0,1.00391 -0.3747,1.37863 -1.38568,1.35034 -1.00392,-0.0212 -1.3362,-0.36763 -1.3362,-1.37863 0,-3.67632 0,-8.10204 0,-12.42173 -3.9874,-0.32521 -7.96066,-0.68578 -11.93391,-1.08169 0.67871,2.72898 0.912,5.35189 0.99685,8.15862 0,0 0,-0.007 0,-0.0145 0,1.90181 0,3.8036 0,5.70539 0,1.78867 0.21915,2.41082 1.30085,3.20264 1.40689,1.03927 3.27333,1.45639 5.02666,1.38568 3.57028,0.0424 7.1547,0.0849 10.72496,0.12018 2.06441,0.0494 4.27728,-0.0423 6.12251,-1.02514 1.06754,-0.56559 1.42811,-1.32205 1.42811,-2.8845 0,-4.2207 0,-8.43432 0,-12.65502 -3.06832,-0.16271 -10.74618,-0.68578 -11.78545,-0.76356"
         id="path13896"
         style="fill:#f0bf05;fill-opacity:1;fill-rule:nonzero;stroke:none;clip-rule:evenodd" />
    </g>
  </g>
</svg>
